<svg width="480" height="314" viewBox="0 0 480 314" fill="none" xmlns="http://www.w3.org/2000/svg">
<path d="M137.001 0L130.184 34.1699H123.028C113.94 34.1699 107.01 36.1801 102.239 40.1999C97.6951 43.9968 94.6278 49.915 93.0376 57.955L79.7466 122.61C77.4747 133.33 74.2938 141.258 70.2044 146.395C66.3418 151.532 60.435 155.217 52.4827 157.45C62.2521 161.247 67.137 168.84 67.137 180.23C67.137 182.017 66.6825 185.59 65.7739 190.95L53.5051 251.92C52.8236 255.048 52.4827 257.837 52.4827 260.294C52.4827 266.547 54.1867 271.238 57.5948 274.364C61.2297 277.715 66.2285 279.389 72.5898 279.389H80.0873L73.2715 313.561H55.8907C40.8957 313.561 29.1949 309.764 20.7886 302.171C12.6095 294.799 8.51993 284.414 8.51993 271.015C8.51993 266.102 8.97435 261.413 9.88312 256.945L23.515 189.945C23.9695 187.265 24.1967 185.59 24.1967 184.92C24.1967 177.55 20.1071 173.865 11.9279 173.865H0L6.81595 139.695H18.4031C28.3997 139.695 34.5341 134.335 36.806 123.615L51.1196 53.2648C54.9822 34.7283 62.2521 21.2166 72.9305 12.73C83.8361 4.24334 99.3992 0 119.62 0H137.001ZM480 139.695L473.183 173.865H461.596C451.598 173.865 445.581 179.225 443.534 189.945L428.882 260.294C425.017 278.832 417.634 292.342 406.727 300.831C396.051 309.317 380.601 313.561 360.379 313.561H343.339L350.156 279.389H356.972C366.06 279.389 372.877 277.38 377.419 273.359C382.19 269.563 385.486 263.645 387.302 255.604L400.593 190.95C402.865 180.006 405.933 171.967 409.795 166.83C413.885 161.693 419.905 158.12 427.857 156.11C418.089 152.09 413.202 144.608 413.202 133.665C413.202 129.868 413.658 126.183 414.566 122.61L426.835 61.64C427.518 58.5132 427.857 55.7218 427.857 53.2648C427.857 47.0117 426.039 42.3218 422.404 39.195C418.997 35.8449 414.113 34.1699 407.751 34.1699H400.252L407.069 0H424.109C439.105 0 450.806 3.79664 459.211 11.39C467.616 18.76 471.82 29.0334 471.82 42.2099C471.82 46.23 471.253 51.0319 470.118 56.6149L456.826 123.615C456.371 126.295 456.143 127.97 456.143 128.64C456.143 136.01 460.233 139.695 468.413 139.695H480Z" fill="#2B2B2B"/>
<path d="M299.245 64.726C290.385 64.726 283.343 67.1829 278.117 72.0962C272.892 77.0091 269.143 84.491 266.869 94.541L264.826 104.256H314.583L307.766 137.756H259.031L229.723 281.807H187.124L216.432 137.756H186.783L193.599 104.256H223.248L225.975 91.526C230.064 72.3192 238.243 57.4679 250.512 46.9711C263.007 36.2511 279.253 30.8911 299.245 30.8911C307.197 30.8911 314.583 31.7844 321.397 33.5711C328.441 35.358 334.347 38.038 339.12 41.6111L321.739 72.0962C315.605 67.1829 308.108 64.726 299.245 64.726Z" fill="#2B2B2B"/>
</svg>
