<svg width="192" height="128" viewBox="0 0 192 128" fill="none" xmlns="http://www.w3.org/2000/svg">
<path d="M55.3095 1.07788L52.6147 14.821H49.7853C46.1923 14.821 43.4526 15.6295 41.5663 17.2463C39.7698 18.7734 38.5571 21.1537 37.9284 24.3874L32.6737 50.3916C31.7755 54.7032 30.5179 57.8919 28.9011 59.9579C27.374 62.0239 25.0387 63.506 21.8947 64.4042C25.7571 65.9313 27.6884 68.9853 27.6884 73.5663C27.6884 74.285 27.5087 75.7221 27.1495 77.8779L22.2989 102.4C22.0295 103.658 21.8947 104.78 21.8947 105.768C21.8947 108.283 22.5684 110.17 23.9158 111.427C25.3529 112.775 27.3292 113.448 29.8442 113.448H32.8084L30.1137 127.192H23.2421C17.3137 127.192 12.6877 125.665 9.36421 122.611C6.13053 119.646 4.51368 115.469 4.51368 110.08C4.51368 108.104 4.69334 106.218 5.05263 104.421L10.4421 77.4737C10.6218 76.3958 10.7116 75.7221 10.7116 75.4526C10.7116 72.4884 9.09474 71.0063 5.86105 71.0063H1.14526L3.84 57.2632H8.42105C12.3733 57.2632 14.7986 55.1074 15.6968 50.7958L21.3558 22.501C22.8829 15.0456 25.7571 9.61121 29.9789 6.19789C34.2905 2.78455 40.4435 1.07788 48.4379 1.07788H55.3095ZM190.917 57.2632L188.222 71.0063H183.641C179.688 71.0063 177.309 73.1621 176.5 77.4737L170.707 105.768C169.179 113.224 166.26 118.658 161.948 122.072C157.727 125.485 151.619 127.192 143.624 127.192H136.887L139.582 113.448H142.277C145.87 113.448 148.565 112.64 150.361 111.023C152.247 109.496 153.55 107.116 154.268 103.882L159.523 77.8779C160.421 73.4765 161.634 70.2429 163.161 68.1768C164.778 66.1108 167.158 64.6737 170.302 63.8653C166.44 62.2484 164.508 59.2392 164.508 54.8379C164.508 53.3108 164.688 51.8287 165.047 50.3916L169.898 25.8695C170.168 24.6119 170.302 23.4892 170.302 22.501C170.302 19.986 169.583 18.0997 168.146 16.8421C166.799 15.4947 164.868 14.821 162.353 14.821H159.388L162.083 1.07788H168.82C174.749 1.07788 179.375 2.60489 182.698 5.65894C186.021 8.62315 187.683 12.7551 187.683 18.0547C187.683 19.6716 187.459 21.6029 187.01 23.8484L181.755 50.7958C181.575 51.8737 181.485 52.5474 181.485 52.8168C181.485 55.781 183.102 57.2632 186.336 57.2632H190.917Z" fill="black"/>
<path d="M121.128 28.9011C117.625 28.9011 114.841 29.8893 112.775 31.8654C110.709 33.8414 109.227 36.8506 108.328 40.8927L107.52 44.8001H127.192L124.497 58.2738H105.229L93.6421 116.211H76.8L88.3874 58.2738H76.6653L79.36 44.8001H91.0821L92.16 39.6801C93.7769 31.9551 97.0105 25.9819 101.861 21.7601C106.801 17.4485 113.224 15.2927 121.128 15.2927C124.272 15.2927 127.192 15.652 129.886 16.3706C132.671 17.0893 135.006 18.1672 136.893 19.6043L130.021 31.8654C127.596 29.8893 124.632 28.9011 121.128 28.9011Z" fill="black"/>
</svg>
